<svg width="322" height="322" viewBox="0 0 322 322" fill="none" xmlns="http://www.w3.org/2000/svg">
<rect x="3" y="4" width="22" height="22" rx="5" fill="#D9D9D9"/>
<rect x="43" y="7" width="15" height="15" rx="3" fill="#D9D9D9"/>
<rect x="43" y="153" width="15" height="15" rx="3" fill="#D9D9D9"/>
<rect x="79" y="189" width="17" height="17" rx="3" fill="#D9D9D9"/>
<rect x="43" y="262" width="15" height="15" rx="3" fill="#D9D9D9"/>
<rect x="225" y="7" width="14" height="14" rx="3" fill="#D9D9D9"/>
<rect x="117" y="45" width="13" height="13" rx="3" fill="#D9D9D9"/>
<rect x="117" y="117" width="13" height="13" rx="3" fill="#D9D9D9"/>
<rect x="80" y="263" width="13" height="13" rx="3" fill="#D9D9D9"/>
<rect x="153" y="154" width="13" height="13" rx="3" fill="#D9D9D9"/>
<rect x="118" y="82" width="11" height="11" rx="2" fill="#D9D9D9"/>
<rect x="9" y="227" width="11" height="11" rx="2" fill="#D9D9D9"/>
<rect x="8" y="300" width="11" height="11" rx="2" fill="#D9D9D9"/>
<rect x="154" y="300" width="12" height="12" rx="2" fill="#D9D9D9"/>
<rect x="263" y="265" width="11" height="11" rx="2" fill="#D9D9D9"/>
<rect x="154" y="191" width="12" height="12" rx="2" fill="#D9D9D9"/>
<rect x="9" y="155" width="11" height="11" rx="2" fill="#D9D9D9"/>
<rect x="263" y="9" width="12" height="12" rx="2" fill="#D9D9D9"/>
<rect x="79" y="6" width="17" height="17" rx="3" fill="#D9D9D9"/>
<rect x="42" y="115" width="17" height="17" rx="3" fill="#D9D9D9"/>
<rect x="78" y="152" width="17" height="17" rx="3" fill="#D9D9D9"/>
<rect x="77" y="114" width="19" height="19" rx="3" fill="#D9D9D9"/>
<rect x="150" y="41" width="19" height="19" rx="3" fill="#D9D9D9"/>
<rect x="186" y="151" width="19" height="19" rx="3" fill="#D9D9D9"/>
<rect x="187" y="224" width="19" height="19" rx="3" fill="#D9D9D9"/>
<rect x="114" y="151" width="19" height="19" rx="3" fill="#D9D9D9"/>
<rect x="5" y="187" width="19" height="19" rx="3" fill="#D9D9D9"/>
<rect x="259" y="114" width="19" height="19" rx="3" fill="#D9D9D9"/>
<rect x="5" y="260" width="19" height="19" rx="3" fill="#D9D9D9"/>
<rect x="223" y="224" width="19" height="19" rx="3" fill="#D9D9D9"/>
<rect x="78" y="224" width="19" height="19" rx="3" fill="#D9D9D9"/>
<rect x="150" y="223" width="19" height="19" rx="3" fill="#D9D9D9"/>
<rect x="260" y="188" width="19" height="19" rx="3" fill="#D9D9D9"/>
<rect x="4" y="113" width="21" height="21" rx="3" fill="#D9D9D9"/>
<rect x="114" y="6" width="18" height="18" rx="3" fill="#D9D9D9"/>
<rect x="298" y="116" width="16" height="16" rx="3" fill="#D9D9D9"/>
<rect x="298" y="224" width="16" height="16" rx="3" fill="#D9D9D9"/>
<rect x="261" y="153" width="16" height="16" rx="3" fill="#D9D9D9"/>
<rect x="5" y="42" width="18" height="18" rx="3" fill="#D9D9D9"/>
<rect x="296" y="42" width="18" height="18" rx="3" fill="#D9D9D9"/>
<rect x="149" y="4" width="22" height="22" rx="5" fill="#D9D9D9"/>
<rect x="183" y="38" width="26" height="26" rx="5" fill="#D9D9D9"/>
<rect x="73" y="74" width="27" height="27" rx="5" fill="#D9D9D9"/>
<rect x="146" y="110" width="27" height="27" rx="5" fill="#D9D9D9"/>
<rect x="146" y="256" width="27" height="27" rx="5" fill="#D9D9D9"/>
<rect x="109" y="256" width="27" height="27" rx="5" fill="#D9D9D9"/>
<rect x="37" y="220" width="27" height="27" rx="5" fill="#D9D9D9"/>
<rect x="37" y="183" width="27" height="27" rx="5" fill="#D9D9D9"/>
<rect x="110" y="183" width="27" height="27" rx="5" fill="#D9D9D9"/>
<rect x="73" y="292" width="27" height="27" rx="5" fill="#D9D9D9"/>
<rect x="294" y="4" width="22" height="22" rx="5" fill="#D9D9D9"/>
<rect x="257" y="39" width="25" height="25" rx="5" fill="#D9D9D9"/>
<rect x="293" y="257" width="25" height="25" rx="5" fill="#D9D9D9"/>
<rect x="257" y="293" width="25" height="25" rx="5" fill="#D9D9D9"/>
<rect x="111" y="293" width="25" height="25" rx="5" fill="#D9D9D9"/>
<rect x="147" y="75" width="25" height="25" rx="5" fill="#D9D9D9"/>
<rect x="256" y="221" width="25" height="25" rx="5" fill="#D9D9D9"/>
<rect x="77" y="40" width="22" height="22" rx="5" fill="#D9D9D9"/>
<rect x="221" y="149" width="22" height="22" rx="5" fill="#D9D9D9"/>
<rect x="184" y="186" width="22" height="22" rx="5" fill="#D9D9D9"/>
<rect x="294" y="294" width="24" height="24" rx="5" fill="#D9D9D9"/>
<rect x="222" y="259" width="22" height="22" rx="5" fill="#D9D9D9"/>
<rect x="221" y="294" width="24" height="24" rx="5" fill="#D9D9D9"/>
<rect x="181" width="30" height="30" rx="6" fill="#D9D9D9"/>
<rect x="36" y="36" width="30" height="30" rx="6" fill="#D9D9D9"/>
<rect x="181" y="72" width="30" height="30" rx="6" fill="#D9D9D9"/>
<rect x="217" y="182" width="30" height="30" rx="6" fill="#D9D9D9"/>
<rect x="37" y="290" width="30" height="30" rx="6" fill="#D9D9D9"/>
<rect x="182" y="255" width="30" height="30" rx="6" fill="#D9D9D9"/>
<rect x="290" y="182" width="30" height="30" rx="6" fill="#D9D9D9"/>
<rect x="218" y="72" width="30" height="30" rx="6" fill="#D9D9D9"/>
<rect x="253" y="72" width="32" height="32" rx="6" fill="#D9D9D9"/>
<rect y="74" width="27" height="27" rx="6" fill="#D9D9D9"/>
<rect x="216" y="34" width="33" height="33" rx="6" fill="#D9D9D9"/>
<rect x="179" y="107" width="33" height="33" rx="6" fill="#D9D9D9"/>
<rect x="107" y="216" width="33" height="33" rx="6" fill="#D9D9D9"/>
<rect x="179" y="289" width="33" height="33" rx="6" fill="#D9D9D9"/>
<rect x="216" y="107" width="33" height="33" rx="6" fill="#D9D9D9"/>
<rect x="288" y="71" width="33" height="33" rx="6" fill="#D9D9D9"/>
<rect x="289" y="144" width="33" height="33" rx="6" fill="#D9D9D9"/>
<rect x="34" y="71" width="33" height="33" rx="6" fill="#D9D9D9"/>
</svg>
