<?xml version="1.0" encoding="utf-8"?>
<!-- Generator: Adobe Illustrator 22.1.0, SVG Export Plug-In . SVG Version: 6.00 Build 0)  -->
<svg version="1.1" id="Layer_1" xmlns="http://www.w3.org/2000/svg" xmlns:xlink="http://www.w3.org/1999/xlink" x="0px" y="0px"
	 viewBox="0 0 192 223.3" style="enable-background:new 0 0 192 223.3;" xml:space="preserve">
<style type="text/css">
	.st0{fill:#685E5A;}
	.st1{fill:#333232;}
	.st2{fill:#3A3634;}
</style>
<polygon class="st0" points="97,0 0,56 29.3,74.8 97,33.3 164.7,72.4 192,56 "/>
<polygon points="0,167.3 96,223.3 192,167.3 164.7,151.7 97,190 29.2,150.7 "/>
<polygon class="st0" points="97,112 137.3,88 97,64.7 56,88.3 "/>
<polygon class="st1" points="56,135.4 96,160.1 97,112 56,88.3 "/>
<polygon points="97,112 137.3,88 137.3,135 96,160.1 "/>
<polygon class="st2" points="164.7,72.4 164.7,151.7 137.3,135 137.3,88 "/>
<polygon points="164.7,72.4 192,56 192,167.3 164.7,151.7 "/>
<polygon class="st2" points="0,56 0,167.3 29.2,150.7 29.3,74.8 "/>
</svg>
