<svg width="166" height="1183" viewBox="0 0 166 1183" fill="none" xmlns="http://www.w3.org/2000/svg">
<path d="M165 1006.09L83.2615 1183L0 1006.09V967H165V1006.09Z" fill="#E7A980"/>
<path fill-rule="evenodd" clip-rule="evenodd" d="M166 182H0V955.002V959.5V961.515V1005.1L13.7485 1021.63C16.4366 1025.36 18.1417 1025.04 21.3865 1021.63L46.3374 995.581C48.4702 992.222 49.7685 992.135 52.4479 995.581L80.454 1032.15C83.4366 1036.35 85.109 1035.52 88.092 1032.15L125.264 990.07C127.546 987.318 128.63 987.601 130.356 990.07L149.706 1019.63C151.919 1022.33 153.083 1022.29 155.307 1019.63L160.908 1015.12L166 1005.1L166 959.5L166 954L166 182Z" fill="#FFD268"/>
<path fill-rule="evenodd" clip-rule="evenodd" d="M83 1034.72C84.6407 1035.56 86.0633 1034.44 88.092 1032.15L125.264 990.07C127.546 987.318 128.63 987.601 130.356 990.07L149.706 1019.63C151.919 1022.33 153.083 1022.29 155.307 1019.63L160.908 1015.12L166 1005.1L166 959.5L166 954L166 182H83V1034.72Z" fill="#F9BE36"/>
<path d="M49.5001 992.5C49.4999 991.5 49.5001 159 49.5001 159L128 150.5V988C127.237 988.085 126.812 988.283 126 989L87.5001 1032.5C84.6751 1035.27 83.1472 1035.46 80.5001 1032.5L52.9876 997C51.6256 995.243 49.5002 993.5 49.5001 992.5Z" fill="#FFC334"/>
<path d="M0 20.459C38.5005 -8.54156 134 -5.04171 166 20.459V92.959C154.503 94.6835 11.5029 95.4585 0 92.959V20.459Z" fill="url(#paint0_linear_654_87)"/>
<path d="M0 97C64.2215 100.775 100.537 100.992 166 97V190C99.9537 193.444 63.5561 193.524 0 190V97Z" fill="#D8D8D8"/>
<path d="M0 86C64.2215 89.7751 100.537 89.9917 166 86V179C99.9537 182.444 63.5561 182.524 0 179V86Z" fill="#D8D8D8"/>
<path fill-rule="evenodd" clip-rule="evenodd" d="M0 95V122C64.2215 125.775 100.537 125.992 166 122V95C99.9537 98.444 63.5561 98.5236 0 95Z" fill="url(#paint1_linear_654_87)"/>
<path fill-rule="evenodd" clip-rule="evenodd" d="M0 95V122C64.2217 125.775 100.537 125.992 166 122V95C99.9536 98.444 63.5562 98.5236 0 95ZM0 136V163C64.2217 166.775 100.537 166.992 166 163V136C99.9536 139.444 63.5562 139.524 0 136ZM0 191.461V178C63.5562 179.757 99.9536 179.717 166 178V191.461C100.537 193.451 64.2217 193.343 0 191.461Z" fill="url(#paint2_linear_654_87)"/>
<path d="M70.618 1121L60 1133.5L83.2584 1183L105.5 1135L96.4045 1121L82.2472 1134.5L70.618 1121Z" fill="#6B6B6B"/>
<defs>
<linearGradient id="paint0_linear_654_87" x1="83" y1="0" x2="175.5" y2="0" gradientUnits="userSpaceOnUse">
<stop stop-color="#DA8E8D"/>
<stop offset="1" stop-color="#C85957"/>
</linearGradient>
<linearGradient id="paint1_linear_654_87" x1="83" y1="95" x2="192.5" y2="95" gradientUnits="userSpaceOnUse">
<stop stop-color="#CCCCCC"/>
<stop offset="1" stop-color="#B1B1B1"/>
</linearGradient>
<linearGradient id="paint2_linear_654_87" x1="83" y1="178" x2="192.5" y2="178" gradientUnits="userSpaceOnUse">
<stop stop-color="#CCCCCC"/>
<stop offset="1" stop-color="#B1B1B1"/>
</linearGradient>
</defs>
</svg>
